<?xml version="1.0" standalone="no"?>
<!DOCTYPE svg PUBLIC "-//W3C//DTD SVG 20010904//EN"
 "http://www.w3.org/TR/2001/REC-SVG-20010904/DTD/svg10.dtd">
<svg version="1.0" xmlns="http://www.w3.org/2000/svg"
 width="461.000000pt" height="111.000000pt" viewBox="0 0 461.000000 111.000000"
 preserveAspectRatio="xMidYMid meet">

<g transform="translate(0.000000,111.000000) scale(0.100000,-0.100000)"
fill="#000000" stroke="none">
<path d="M0 555 l0 -555 2305 0 2305 0 0 555 0 555 -2305 0 -2305 0 0 -555z
m2288 240 c20 -9 42 -23 49 -31 10 -14 14 -14 38 2 53 35 104 -29 92 -118 -5
-34 -2 -40 19 -48 33 -13 42 -55 17 -88 -27 -37 -81 -72 -100 -65 -12 5 -14 1
-8 -15 17 -54 -24 -87 -90 -72 -63 14 -62 28 1 26 48 -1 59 2 62 16 3 15 -1
16 -25 9 -55 -18 -111 -20 -117 -4 -5 12 -9 12 -28 -1 -58 -41 -102 0 -105 98
-1 50 -5 61 -21 67 -43 16 -31 87 20 123 39 27 43 17 9 -18 -21 -22 -31 -41
-29 -55 5 -33 22 -23 35 21 6 21 17 46 25 55 7 9 13 19 13 22 0 3 6 5 13 4 9
-1 12 6 8 21 -14 57 46 82 122 51z m-1841 -90 c20 -14 22 -24 22 -128 0 -146
-1 -147 -124 -147 -57 0 -95 4 -103 12 -17 17 -17 249 0 266 18 18 178 16 205
-3z m329 -7 c26 -26 23 -102 -5 -132 l-23 -24 26 -45 c32 -55 33 -67 1 -67
-19 0 -31 12 -57 60 -31 56 -35 60 -70 60 l-37 0 -3 -57 c-3 -51 -6 -58 -25
-61 -22 -3 -23 -1 -23 82 l0 85 88 3 87 3 0 30 0 30 -87 3 c-87 3 -88 3 -88
28 l0 26 100 -4 c77 -2 103 -7 116 -20z m201 -48 c21 -38 40 -70 43 -70 3 0
22 32 43 70 31 57 43 70 63 70 13 0 24 -4 24 -9 0 -5 -22 -48 -49 -95 -37 -64
-51 -98 -53 -133 -3 -44 -5 -48 -28 -48 -23 0 -25 4 -28 48 -2 35 -16 69 -53
133 -27 47 -49 90 -49 95 0 5 11 9 25 9 20 0 31 -12 62 -70z m384 54 c16 -19
109 -242 109 -261 0 -7 -11 -13 -24 -13 -21 0 -29 13 -69 113 l-45 112 -21
-48 c-27 -61 -26 -67 3 -67 22 0 36 -16 36 -41 0 -5 -20 -9 -44 -9 -40 0 -45
-3 -55 -30 -7 -23 -16 -30 -35 -30 -15 0 -26 4 -26 10 0 15 99 252 111 267 15
18 44 16 60 -3z m281 -1 c8 -10 37 -57 64 -105 l49 -88 5 103 c5 101 5 102 30
102 l25 0 3 -123 c3 -142 -4 -165 -51 -160 -29 3 -37 13 -94 113 l-62 109 -3
-109 c-3 -105 -4 -110 -25 -113 -23 -3 -23 -3 -23 136 0 76 3 142 7 145 13 13
60 7 75 -10z m1318 -3 c14 -14 20 -33 20 -65 0 -68 -22 -85 -110 -85 l-69 0
-7 -61 c-6 -54 -9 -60 -28 -57 -19 3 -21 10 -24 86 l-3 82 84 0 c88 0 116 12
103 45 -4 12 -24 15 -91 15 -89 0 -105 8 -91 45 4 12 25 15 101 15 82 0 98 -3
115 -20z m301 -120 c31 -74 55 -138 52 -142 -2 -5 -15 -8 -28 -8 -20 0 -29 14
-67 111 l-45 111 -18 -43 c-9 -24 -19 -49 -22 -56 -3 -7 7 -13 24 -15 20 -2
29 -9 31 -25 3 -21 -1 -23 -37 -23 -35 0 -43 -4 -56 -30 -11 -21 -23 -30 -40
-30 -14 0 -25 5 -25 10 0 16 88 230 105 257 12 17 24 23 43 21 24 -3 32 -16
83 -138z m189 38 c0 -57 4 -108 8 -115 4 -7 37 -13 77 -15 69 -3 70 -4 73 -32
l4 -28 -86 3 c-119 5 -120 7 -124 164 l-4 125 26 0 26 0 0 -102z m424 80 c18
-28 106 -243 106 -258 0 -6 -12 -10 -27 -8 -25 3 -31 13 -68 105 -22 57 -43
103 -46 103 -6 0 -39 -79 -39 -93 0 -4 11 -7 24 -7 22 0 36 -16 36 -41 0 -5
-20 -9 -44 -9 -40 0 -45 -3 -55 -30 -7 -22 -16 -30 -34 -30 -13 0 -26 3 -29 6
-6 5 69 200 98 257 18 34 57 37 78 5z m407 -7 c28 -28 29 -34 29 -116 0 -82
-1 -88 -29 -116 -28 -28 -34 -29 -115 -29 -74 0 -87 3 -96 19 -14 28 -13 244
2 259 7 7 44 12 96 12 79 0 85 -2 113 -29z"/>
<path d="M2196 774 c-4 -9 -5 -18 -4 -20 2 -1 30 3 63 10 58 12 59 12 26 19
-53 11 -78 8 -85 -9z"/>
<path d="M2215 741 c-19 -7 -17 -11 17 -45 42 -42 62 -43 86 -4 13 22 13 29 3
42 -14 17 -71 20 -106 7z"/>
<path d="M2376 728 c-8 -13 -19 -42 -25 -66 -11 -49 -4 -55 51 -50 28 3 33 6
30 27 -1 14 -14 40 -28 58 -14 18 -21 33 -16 33 10 0 45 -37 60 -65 l11 -20 1
20 c0 28 -37 85 -55 85 -8 0 -21 -10 -29 -22z"/>
<path d="M2147 677 c-25 -28 -43 -74 -32 -85 10 -11 100 24 103 40 2 9 -8 28
-21 44 l-24 28 -26 -27z"/>
<path d="M2267 604 c-15 -15 -7 -45 11 -42 9 2 17 12 17 22 0 20 -16 31 -28
20z"/>
<path d="M2388 564 c-27 -8 -48 -17 -48 -20 0 -2 7 -20 14 -39 23 -53 52 -43
89 31 24 47 17 50 -55 28z"/>
<path d="M2467 563 c-2 -5 -7 -21 -11 -38 -4 -16 -17 -41 -29 -55 l-22 -24 25
15 c33 21 70 77 63 95 -6 15 -19 19 -26 7z"/>
<path d="M2130 533 c0 -28 46 -97 59 -88 5 2 14 26 20 51 14 54 7 64 -46 64
-29 0 -33 -3 -33 -27z"/>
<path d="M2100 507 c0 -39 44 -99 67 -90 11 4 8 12 -15 37 -16 17 -34 40 -40
51 -10 18 -11 18 -12 2z"/>
<path d="M2258 493 c-26 -31 -30 -44 -18 -58 14 -17 105 -21 115 -6 6 10 -59
81 -74 81 -4 0 -15 -8 -23 -17z"/>
<path d="M284 657 c-3 -8 -4 -49 -2 -93 l3 -79 44 -3 c70 -5 91 3 91 38 0 29
-1 30 -50 30 -46 0 -50 2 -50 24 0 23 5 25 48 28 45 3 47 4 47 33 0 30 0 30
-63 33 -46 2 -64 -1 -68 -11z"/>
<path d="M4120 575 l0 -85 60 0 c56 0 61 2 70 26 6 14 10 40 10 59 0 19 -4 45
-10 59 -9 24 -14 26 -70 26 l-60 0 0 -85z"/>
</g>
</svg>
