<?xml version="1.0" standalone="no"?>
<!DOCTYPE svg PUBLIC "-//W3C//DTD SVG 20010904//EN"
 "http://www.w3.org/TR/2001/REC-SVG-20010904/DTD/svg10.dtd">
<svg version="1.0" xmlns="http://www.w3.org/2000/svg"
 width="409.000000pt" height="120.000000pt" viewBox="0 0 409.000000 120.000000"
 preserveAspectRatio="xMidYMid meet">

<g transform="translate(0.000000,120.000000) scale(0.100000,-0.100000)"
fill="#000000" stroke="none">
<path d="M397 882 c-37 -5 -61 -42 -52 -83 6 -27 5 -31 -9 -26 -10 4 -33 -3
-55 -17 -87 -55 -105 -123 -44 -161 23 -14 32 -28 33 -46 0 -27 42 -89 74
-109 13 -9 12 -3 -7 22 -32 41 -48 83 -41 103 7 17 79 21 103 6 29 -19 -33
-171 -69 -171 -21 0 -50 47 -65 104 l-15 61 4 -56 c5 -68 28 -116 62 -131 20
-10 29 -8 54 11 24 17 34 19 49 11 23 -12 85 -13 121 -2 19 5 10 8 -39 12 -78
6 -96 24 -65 66 38 52 50 53 93 9 22 -22 41 -47 43 -55 2 -8 8 -18 13 -22 7
-5 6 -13 -1 -25 -15 -24 -82 -28 -128 -9 -47 20 -46 12 2 -13 64 -33 103 -36
135 -10 23 18 28 28 25 58 -2 26 1 36 12 37 8 1 20 2 26 3 19 2 95 74 105 99
12 30 -10 68 -47 82 -17 7 -24 17 -24 37 0 31 -44 99 -74 115 -17 9 -17 7 5
-19 32 -38 53 -88 45 -108 -7 -19 -91 -21 -103 -3 -18 31 12 126 48 152 39 27
63 -1 84 -98 l13 -61 1 50 c1 70 -33 139 -72 143 -16 2 -39 -4 -53 -13 -18
-12 -29 -13 -43 -5 -25 13 -76 13 -120 0 -41 -12 -54 -5 -41 21 13 23 65 25
123 5 45 -17 48 -12 5 10 -43 22 -77 30 -111 26z m129 -86 c19 -15 19 -15 -1
-53 -29 -54 -53 -54 -105 3 -33 36 -39 48 -29 55 22 14 113 10 135 -5z m-215
-45 c-11 -11 -27 -45 -37 -75 -19 -59 -24 -65 -43 -42 -17 20 2 60 46 101 40
37 67 49 34 16z m69 -23 c11 -12 21 -30 22 -40 0 -10 1 -23 2 -30 1 -14 -58
-36 -101 -37 -18 -1 -33 4 -33 9 0 29 62 120 81 120 5 0 17 -10 29 -22z m118
-100 c7 -7 12 -17 12 -24 0 -19 -32 -26 -48 -10 -13 12 -13 18 -2 30 15 19 22
20 38 4z m192 -38 c0 -41 -56 -120 -85 -120 -22 0 -57 80 -43 97 21 25 128 44
128 23z m40 -5 c6 -8 9 -23 5 -35 -8 -26 -52 -78 -78 -92 l-20 -11 20 27 c12
15 27 49 34 76 14 53 19 59 39 35z"/>
<path d="M1190 605 l0 -175 44 0 c65 0 95 15 112 55 11 28 12 44 4 75 -6 21
-16 40 -23 43 -9 3 -9 9 1 26 13 22 16 79 6 106 -9 24 -58 45 -104 45 l-40 0
0 -175z m88 103 c18 -18 15 -43 -8 -63 -17 -15 -20 -16 -20 -3 0 9 -3 30 -6
47 -7 33 10 43 34 19z m7 -173 c0 -30 -4 -41 -17 -43 -15 -3 -18 4 -18 43 0
39 3 46 18 43 13 -2 17 -13 17 -43z"/>
<path d="M1410 601 l0 -181 25 0 c24 0 25 2 25 65 0 36 4 65 9 65 5 0 21 -29
36 -65 27 -62 30 -65 62 -65 18 0 33 2 33 5 0 3 -16 37 -35 76 l-36 70 26 30
c34 41 35 107 2 145 -20 23 -34 28 -85 32 l-62 4 0 -181z m98 107 c20 -20 15
-76 -8 -88 -28 -15 -40 -5 -40 35 0 60 20 81 48 53z"/>
<path d="M1650 771 c0 -4 18 -47 40 -95 34 -74 40 -96 40 -155 0 -85 6 -101
35 -101 21 0 23 6 29 84 5 66 15 102 46 172 22 49 35 93 31 97 -21 21 -47 -1
-77 -61 l-31 -63 -22 50 c-11 27 -21 54 -21 59 0 6 -7 13 -16 16 -23 9 -54 7
-54 -3z"/>
<path d="M2344 768 c-6 -7 -9 -86 -8 -178 l1 -165 28 0 28 0 -2 100 c-1 64 1
96 7 90 6 -5 25 -46 42 -90 40 -97 46 -105 76 -105 l24 0 -2 178 -3 177 -27 3
-28 3 0 -102 c0 -56 -3 -100 -6 -97 -3 4 -23 48 -44 100 -39 93 -63 118 -86
86z"/>
<path d="M2710 601 l0 -181 25 0 c24 0 25 2 25 65 l0 65 29 0 c17 0 42 10 58
24 25 22 28 31 28 85 -1 82 -28 112 -109 119 l-56 4 0 -181z m100 100 c16 -31
12 -69 -10 -91 -30 -30 -40 -17 -40 51 0 52 2 59 20 59 10 0 24 -9 30 -19z"/>
<path d="M2967 613 c-20 -93 -37 -174 -37 -181 0 -9 10 -12 28 -10 19 2 28 9
30 26 3 18 10 22 41 22 31 0 40 -5 49 -26 9 -18 19 -24 35 -22 27 4 27 -2 -16
198 l-34 155 -29 3 -30 3 -37 -168z m82 -55 c1 -22 -4 -28 -19 -28 -24 0 -23
-2 -8 58 11 42 13 45 19 22 4 -14 7 -37 8 -52z"/>
<path d="M3190 601 l0 -181 70 0 70 0 0 30 c0 28 -2 30 -40 30 l-39 0 -3 148
-3 147 -27 3 -28 3 0 -180z"/>
<path d="M3455 758 c-51 -218 -71 -330 -59 -335 21 -8 45 5 51 27 4 16 14 20
43 20 32 0 39 -4 44 -25 5 -18 13 -25 31 -25 15 0 25 6 25 14 0 8 -16 87 -35
177 -19 90 -35 165 -35 166 0 2 -13 3 -30 3 -22 0 -31 -5 -35 -22z m45 -152
c0 -7 3 -28 6 -45 6 -27 4 -31 -16 -31 -20 0 -22 4 -16 31 3 17 6 38 6 45 0 8
5 14 10 14 6 0 10 -6 10 -14z"/>
<path d="M3647 773 c-4 -3 -7 -83 -7 -176 l0 -170 68 5 c114 8 147 46 147 168
0 87 -19 130 -68 160 -31 20 -125 28 -140 13z m117 -68 c23 -24 37 -88 30
-136 -8 -48 -45 -92 -72 -87 -15 3 -17 19 -20 121 l-3 117 25 0 c14 0 32 -7
40 -15z"/>
<path d="M2015 600 c-47 -93 -85 -172 -85 -175 0 -3 79 -5 175 -5 96 0 175 2
175 5 0 10 -170 345 -175 345 -3 0 -43 -76 -90 -170z m184 -82 c1 -5 -28 -8
-64 -8 -53 0 -63 3 -59 15 4 9 19 15 40 15 40 0 40 2 11 58 l-23 42 -37 -75
c-20 -41 -37 -77 -37 -80 0 -2 44 -6 97 -7 66 -2 98 -7 101 -15 3 -10 -27 -13
-127 -13 l-131 0 66 132 66 133 49 -95 c26 -52 48 -98 48 -102z"/>
</g>
</svg>
